<svg viewBox="0 0 32 32" fill="currentColor" xmlns="http://www.w3.org/2000/svg">
<path d="M29.375 8.37505L29.45 8.32505C29.3 8.05005 29.075 7.80005 28.85 7.67505L16.775 0.725049C16.575 0.600049 16.3 0.550049 16 0.550049C15.7 0.550049 15.425 0.625049 15.225 0.725049L3.225 7.70005C2.8 7.95005 2.5 8.57505 2.5 9.05005V22.9751C2.5 23.2501 2.55 23.5501 2.725 23.8251L2.675 23.8501C2.8 24.0501 2.975 24.2251 3.15 24.3251L15.2 31.3001C15.4 31.4251 15.675 31.4751 15.975 31.4751C16.275 31.4751 16.55 31.4001 16.75 31.3001L28.75 24.3251C29.175 24.0751 29.475 23.4501 29.475 22.9751V9.02505C29.5 8.82505 29.475 8.60005 29.375 8.37505ZM16 25.8751C10.55 25.8751 6.125 21.4501 6.125 16.0001C6.125 10.5501 10.55 6.12505 16 6.12505C19.675 6.12505 22.875 8.15005 24.575 11.1251L21.325 13.0001C20.275 11.1251 18.275 9.87505 16 9.87505C12.625 9.87505 9.875 12.6251 9.875 16.0001C9.875 19.3751 12.625 22.1251 16 22.1251C18.275 22.1251 20.275 20.8751 21.325 19.0251L24.55 20.9251C22.85 23.8751 19.65 25.8751 16 25.8751ZM28.75 15.5001H27.95L27.725 16.5001H28.75V17.7501H27.5L27.2 19.2501H25.975L26.275 17.7501H25.325L25.025 19.2501H23.825L24.125 17.7501H23.5V16.5001H24.375L24.6 15.5001H23.5V14.2501H24.825L25.125 12.7501H26.35L26.05 14.2501H27L27.3 12.7501H28.5L28.2 14.2501H28.75V15.5001ZM25.575 16.5001H26.525L26.75 15.5001H25.8L25.575 16.5001Z" />
</svg>
