<svg viewBox="0 0 320 320" fill="none" xmlns="http://www.w3.org/2000/svg">
<g clip-path="url(#clip0_38_41)">
<path d="M43.2594 81.03C51.6248 75.183 64.235 76.3044 71.746 82.5073L63.1314 69.9857C56.1989 60.0984 58.6818 49.4012 68.5778 42.4596C78.4738 35.5447 106.515 54.1357 106.515 54.1357C99.5206 44.1504 100.829 31.4953 110.814 24.4915C120.799 17.5141 134.575 19.926 141.569 29.9291L234.3 160.929L222.481 275.511L123.851 239.539L37.8219 111.983C30.7647 101.935 33.2031 88.0784 43.2594 81.03Z" fill="#EF9645"/>
<path d="M23.9832 153.908C23.9832 153.908 13.9092 139.224 28.6019 129.159C43.2768 119.093 53.3419 133.768 53.3419 133.768L100.072 201.921C101.683 199.233 103.445 196.581 105.411 193.965L40.5536 99.3897C40.5536 99.3897 30.4885 84.7144 45.1723 74.6491C59.8472 64.5837 69.9123 79.2589 69.9123 79.2589L130.917 168.228C133.186 166.376 135.509 164.516 137.902 162.692L67.1801 59.5376C67.1801 59.5376 57.1151 44.8624 71.7989 34.7971C86.4739 24.7317 96.5389 39.4069 96.5389 39.4069L167.261 142.544C169.86 140.951 172.432 139.571 175.013 138.112L108.909 41.712C108.909 41.712 98.8438 27.0367 113.519 16.9713C128.194 6.90596 138.258 21.5812 138.258 21.5812L208.153 123.516L218.78 139.019C174.746 169.224 170.554 226.048 195.713 262.74C200.741 270.083 208.082 265.055 208.082 265.055C177.888 221.011 187.106 171.52 231.149 141.324L218.165 76.34C218.165 76.34 213.316 59.2173 230.429 54.3581C247.55 49.5079 252.409 66.6305 252.409 66.6305L267.405 111.164C273.349 128.82 279.677 146.415 288.052 163.057C311.697 210.047 297.573 268.445 252.988 299.032C204.353 332.379 137.868 319.981 104.513 271.355L23.9832 153.908Z" fill="#FFDC5D"/>
<path d="M106.791 284.689C71.1943 284.689 35.2235 248.76 35.2235 213.204C35.2235 208.288 31.6192 204.315 26.6979 204.315C21.7767 204.315 17.4248 208.288 17.4248 213.204C17.4248 266.537 53.3957 302.467 106.791 302.467C111.713 302.467 115.691 298.12 115.691 293.205C115.691 288.289 111.713 284.689 106.791 284.689Z" fill="#DDDDDD"/>
<path d="M62.2949 302.201C35.5971 302.201 17.7985 284.401 17.7985 257.704C17.7985 252.783 13.8205 248.804 8.89927 248.804C3.97797 248.804 0 252.783 0 257.704C0 293.301 26.6979 320 62.2949 320C67.2163 320 71.1941 316.021 71.1941 311.1C71.1941 306.179 67.2163 302.201 62.2949 302.201ZM213.583 17.4169C208.671 17.4169 204.683 21.404 204.683 26.3165C204.683 31.2291 208.671 35.216 213.583 35.216C249.18 35.216 284.777 67.1563 284.777 106.412C284.777 111.325 288.764 115.311 293.676 115.311C298.588 115.311 302.575 111.325 302.575 106.412C302.575 57.3401 266.979 17.4169 213.583 17.4169Z" fill="#DDDDDD"/>
<path d="M258.078 0C253.166 0 249.18 3.60899 249.18 8.51579C249.18 13.4225 253.166 17.7783 258.078 17.7783C284.777 17.7783 302.201 37.5565 302.201 61.8505C302.201 66.7573 306.553 70.7397 311.474 70.7397C316.396 70.7397 320 66.7573 320 61.8505C320 27.7429 293.676 0 258.078 0Z" fill="#DDDDDD"/>
</g>
<defs>
<clipPath id="clip0_38_41">
<rect width="320" height="320" fill="white"/>
</clipPath>
</defs>
</svg>
